<svg width="16" height="16" viewBox="0 0 16 16" version="1.1" xmlns="http://www.w3.org/2000/svg" xmlns:xlink="http://www.w3.org/1999/xlink">
<title>boat-anchor copy</title>
<desc>Created using Figma</desc>
<g id="Canvas" transform="translate(-8643 -183)">
<g id="boat-anchor copy" opacity="0.8">
<use xlink:href="#path0_stroke" transform="translate(8644 184)" fill="#818FA4"/>
</g>
</g>
<defs>
<path id="path0_stroke" d="M 13.772 8.22237L 13.4223 8.57973L 13.4237 8.58115L 13.772 8.22237ZM 11.8464 6.338L 11.495 6.69369L 11.4967 6.69535L 11.8464 6.338ZM 11.5279 6.338L 11.8775 6.69556L 11.8841 6.68881L 11.5279 6.338ZM 9.6007 8.22237L 9.25114 7.86487L 9.25099 7.86502L 9.6007 8.22237ZM 9.45166 8.95953L 8.99044 9.15264L 8.99189 9.15603L 9.45166 8.95953ZM 10.4138 9.37863L 10.8905 9.52942L 11.0964 8.87863L 10.4138 8.87863L 10.4138 9.37863ZM 8.47743 11.5457L 7.97828 11.5748L 8.02064 12.2999L 8.68284 12.0015L 8.47743 11.5457ZM 8.00498 3.45698L 7.74206 3.03169L 7.48845 3.18848L 7.50584 3.48614L 8.00498 3.45698ZM 5.96936 3.45384L 6.46851 3.48296L 6.48587 3.18532L 6.23229 3.02855L 5.96936 3.45384ZM 5.49731 11.5457L 5.29198 12.0016L 5.95417 12.2998L 5.99647 11.5748L 5.49731 11.5457ZM 3.55891 9.37863L 3.55891 8.87863L 2.87524 8.87863L 3.08242 9.53016L 3.55891 9.37863ZM 4.52108 8.95953L 4.06119 8.7633L 4.06025 8.76554L 4.52108 8.95953ZM 4.37364 8.22512L 4.72372 7.86813L 4.72332 7.86773L 4.37364 8.22512ZM 2.44649 6.33957L 2.09678 6.69692L 2.09682 6.69696L 2.44649 6.33957ZM 2.12791 6.338L 2.47748 6.6955L 2.47931 6.69369L 2.12791 6.338ZM 0.200756 8.22237L -0.148808 7.86487L -0.148957 7.86502L 0.200756 8.22237ZM 0.0517095 8.95953L -0.409242 9.15326L -0.408062 9.15603L 0.0517095 8.95953ZM 0.944781 9.37863L 1.43707 9.29119L 1.36379 8.87863L 0.944781 8.87863L 0.944781 9.37863ZM 13.0284 9.37863L 13.0284 8.87863L 12.6092 8.87863L 12.536 9.29139L 13.0284 9.37863ZM 13.921 8.95953L 13.4611 8.76329L 13.4599 8.76617L 13.921 8.95953ZM 14.1217 7.86502L 12.1961 5.98064L 11.4967 6.69535L 13.4223 8.57973L 14.1217 7.86502ZM 12.1978 5.9823C 12.0638 5.84984 11.8799 5.77195 11.6865 5.77195L 11.6865 6.77195C 11.6121 6.77195 11.5447 6.7428 11.495 6.69369L 12.1978 5.9823ZM 11.6865 5.77195C 11.496 5.77195 11.3104 5.84616 11.1716 5.98718L 11.8841 6.68881C 11.8304 6.74334 11.7573 6.77195 11.6865 6.77195L 11.6865 5.77195ZM 11.1783 5.9805L 9.25114 7.86487L 9.95027 8.57987L 11.8774 6.6955L 11.1783 5.9805ZM 9.25099 7.86502C 8.90735 8.20131 8.80709 8.71468 8.99045 9.15263L 9.91286 8.76643C 9.88652 8.70351 9.90195 8.62715 9.95041 8.57973L 9.25099 7.86502ZM 8.99189 9.15603C 9.17619 9.58727 9.60468 9.87863 10.0856 9.87863L 10.0856 8.87863C 10.0113 8.87863 9.94085 8.83188 9.91143 8.76304L 8.99189 9.15603ZM 10.0856 9.87863L 10.4138 9.87863L 10.4138 8.87863L 10.0856 8.87863L 10.0856 9.87863ZM 9.93711 9.22784C 9.68063 10.0387 9.06724 10.7315 8.27203 11.0898L 8.68284 12.0015C 9.73563 11.5272 10.5476 10.6136 10.8905 9.52942L 9.93711 9.22784ZM 8.97658 11.5165L 8.50413 3.42783L 7.50584 3.48614L 7.97828 11.5748L 8.97658 11.5165ZM 8.26791 3.88227C 8.94257 3.46517 9.39926 2.72266 9.39926 1.87179L 8.39926 1.87179C 8.39926 2.3545 8.14085 2.78515 7.74206 3.03169L 8.26791 3.88227ZM 9.39926 1.87179C 9.39926 0.551924 8.30865 -0.5 6.98657 -0.5L 6.98657 0.5C 7.77685 0.5 8.39926 1.12447 8.39926 1.87179L 9.39926 1.87179ZM 6.98657 -0.5C 5.66645 -0.5 4.57508 0.550406 4.57508 1.87022L 5.57508 1.87022C 5.57508 1.12363 6.19755 0.5 6.98657 0.5L 6.98657 -0.5ZM 4.57508 1.87022C 4.57508 2.72336 5.0324 3.46242 5.70644 3.87912L 6.23229 3.02855C 5.83287 2.78162 5.57508 2.3538 5.57508 1.87022L 4.57508 1.87022ZM 5.47021 3.42472L 4.99816 11.5166L 5.99647 11.5748L 6.46851 3.48296L 5.47021 3.42472ZM 5.70265 11.0898C 4.90714 10.7315 4.29345 10.0386 4.0354 9.22711L 3.08242 9.53016C 3.42698 10.6137 4.23868 11.5272 5.29198 12.0016L 5.70265 11.0898ZM 3.55891 9.87863L 3.88714 9.87863L 3.88714 8.87863L 3.55891 8.87863L 3.55891 9.87863ZM 3.88714 9.87863C 4.36621 9.87863 4.79872 9.58873 4.98192 9.15352L 4.06025 8.76554C 4.03294 8.83042 3.96326 8.87863 3.88714 8.87863L 3.88714 9.87863ZM 4.98097 9.15577C 5.16926 8.7145 5.06572 8.2035 4.72372 7.86813L 4.02357 8.58212C 4.07367 8.63125 4.08663 8.70369 4.0612 8.7633L 4.98097 9.15577ZM 4.72332 7.86773L 2.79617 5.98218L 2.09682 6.69696L 4.02397 8.58251L 4.72332 7.86773ZM 2.7962 5.98222C 2.66448 5.85331 2.48269 5.77352 2.2878 5.77352L 2.2878 6.77352C 2.20942 6.77352 2.14333 6.74248 2.09678 6.69692L 2.7962 5.98222ZM 2.2878 5.77352C 2.09992 5.77352 1.91559 5.84489 1.77651 5.9823L 2.47931 6.69369C 2.42459 6.74775 2.35356 6.77352 2.2878 6.77352L 2.2878 5.77352ZM 1.77835 5.9805L -0.148808 7.86487L 0.550319 8.57987L 2.47747 6.6955L 1.77835 5.9805ZM -0.148957 7.86502C -0.492163 8.20089 -0.593682 8.7144 -0.409234 9.15326L 0.512653 8.7658C 0.486588 8.70379 0.501575 8.62757 0.550468 8.57973L -0.148957 7.86502ZM -0.408062 9.15603C -0.223756 9.58727 0.204736 9.87863 0.685658 9.87863L 0.685658 8.87863C 0.611373 8.87863 0.540902 8.83188 0.511481 8.76304L -0.408062 9.15603ZM 0.685658 9.87863L 0.944781 9.87863L 0.944781 8.87863L 0.685658 8.87863L 0.685658 9.87863ZM 0.452487 9.46607C 0.993903 12.5141 3.71577 14.8654 6.98657 14.8654L 6.98657 13.8654C 4.19991 13.8654 1.89358 11.8612 1.43707 9.29119L 0.452487 9.46607ZM 6.98657 14.8654C 10.2572 14.8654 12.9805 12.5143 13.5207 9.46587L 12.536 9.29139C 12.0807 11.8611 9.77339 13.8654 6.98657 13.8654L 6.98657 14.8654ZM 13.0284 9.87863L 13.2871 9.87863L 13.2871 8.87863L 13.0284 8.87863L 13.0284 9.87863ZM 13.2871 9.87863C 13.7663 9.87863 14.1993 9.58894 14.3821 9.15289L 13.4599 8.76617C 13.4331 8.83021 13.3639 8.87863 13.2871 8.87863L 13.2871 9.87863ZM 14.3809 9.15577C 14.5689 8.71524 14.4665 8.19969 14.1202 7.8636L 13.4237 8.58115C 13.4728 8.62877 13.4869 8.70295 13.4611 8.7633L 14.3809 9.15577Z"/>
</defs>
</svg>
