<?xml version="1.0" encoding="UTF-8"?>
<svg width="19px" height="11px" viewBox="0 0 19 11" version="1.1" xmlns="http://www.w3.org/2000/svg" xmlns:xlink="http://www.w3.org/1999/xlink">
    <!-- Generator: Sketch 44.1 (41455) - http://www.bohemiancoding.com/sketch -->
    <title>beds</title>
    <desc>Created with Sketch.</desc>
    <defs>
        <path d="M0,4 L17.0025781,4 C18.1057238,4 19,4.88655484 19,6.00591905 L19,8.99408095 C19,10.1019194 18.1090746,11 17.0025781,11 L1.99742191,11 C0.894276248,11 0,10.1134452 0,8.99408095 L0,4 Z" id="path-1"></path>
        <path d="M0,2.5 C0,1.11928813 1.11236572,0 2.50930035,0 L5.49069965,0 C6.87654797,0 8,1.10966206 8,2.5 L8,5 L0,5 L0,2.5 Z" id="path-2"></path>
    </defs>
    <g id="Symbols" stroke="none" stroke-width="1" fill="none" fill-rule="evenodd">
        <g id="yacht-in-catalog" transform="translate(-532.000000, -143.000000)">
            <g id="beds" transform="translate(532.000000, 143.000000)">
                <g id="Rectangle-3-Copy-2">
                    <use fill="#E2E9F4" fill-rule="evenodd" xlink:href="#path-1"></use>
                    <path stroke="#62738D" stroke-width="1" d="M0.5,4.5 L0.5,8.99408095 C0.5,9.83335215 1.16646906,10.5 1.99742191,10.5 L17.0025781,10.5 C17.8311682,10.5 18.5,9.82754374 18.5,8.99408095 L18.5,6.00591905 C18.5,5.16664785 17.8335309,4.5 17.0025781,4.5 L0.5,4.5 Z"></path>
                </g>
                <g id="Rectangle-3-Copy-4">
                    <use fill="#E1E8F4" fill-rule="evenodd" xlink:href="#path-2"></use>
                    <path stroke="#62738D" stroke-width="1" d="M0.5,4.5 L7.5,4.5 L7.5,2.5 C7.5,1.38984522 6.60446261,0.5 5.49069965,0.5 L2.50930035,0.5 C1.39226351,0.5 0.5,1.39167766 0.5,2.5 L0.5,4.5 Z"></path>
                </g>
            </g>
        </g>
    </g>
</svg>