<?xml version="1.0" encoding="UTF-8"?>
<svg width="13px" height="13px" viewBox="0 0 13 13" version="1.1" xmlns="http://www.w3.org/2000/svg" xmlns:xlink="http://www.w3.org/1999/xlink">
    <!-- Generator: Sketch 44.1 (41455) - http://www.bohemiancoding.com/sketch -->
    <title>boat-anchor</title>
    <desc>Created with Sketch.</desc>
    <defs></defs>
    <g id="Symbols" stroke="none" stroke-width="1" fill="none" fill-rule="evenodd">
        <g id="yacht-in-catalog" transform="translate(-343.000000, -111.000000)" stroke="#62738D" stroke-width="0.75" fill="#E1E8F4">
            <g id="Group-11" transform="translate(344.000000, 108.000000)">
                <path d="M10.8411271,10.4725449 L9.32536158,8.98918892 C9.29215579,8.95638363 9.24630016,8.93719563 9.19949581,8.93719563 C9.1523752,8.93719563 9.10810081,8.9551457 9.07457877,8.98918892 L7.5575483,10.4725449 C7.40322041,10.6235731 7.35768104,10.8556859 7.44022116,11.0528271 C7.5243425,11.2496589 7.72073106,11.3827369 7.93925682,11.3827369 L8.19762953,11.3827369 C7.96171026,12.128593 7.40069045,12.7608684 6.67332541,13.0886118 L6.30142051,6.72129137 C6.72392472,6.46008701 7.00538336,5.99833713 7.00538336,5.47345254 C7.00538336,4.65981954 6.3311476,4 5.49973774,4 C4.66959286,4 3.99504085,4.65889109 3.99504085,5.47221461 C3.99504085,5.99833713 4.2764995,6.45761114 4.69900371,6.7188155 L4.32741505,13.0886118 C3.59973377,12.7608684 3.03871395,12.128593 2.8015297,11.3827369 L3.05990241,11.3827369 C3.27842817,11.3827369 3.47608171,11.2496589 3.55893808,11.0528271 C3.64305943,10.8556859 3.5972038,10.6260489 3.44287592,10.4747113 L1.92584545,8.99042685 C1.89232341,8.95762157 1.84678403,8.93843357 1.80092841,8.93843357 C1.75285907,8.93843357 1.70826843,8.95638363 1.67506264,8.98918892 L0.158032168,10.4725449 C0.00370428214,10.6235731 -0.0421513397,10.8556859 0.0407050252,11.0528271 C0.124826373,11.2496589 0.321214932,11.3827369 0.539740689,11.3827369 L0.743719144,11.3827369 C1.13649626,13.5939989 3.11556165,15.3082299 5.49973774,15.3082299 C7.88391383,15.3082299 9.86392795,13.5939989 10.2557563,11.3827369 L10.4594185,11.3827369 C10.6782605,11.3827369 10.8759141,11.2496589 10.9584542,11.0528271 C11.0425756,10.8556859 10.9967199,10.6235731 10.8411271,10.4725449 Z" id="boat-anchor"></path>
            </g>
        </g>
    </g>
</svg>