<svg width="15" height="18" viewBox="0 0 15 18" version="1.1" xmlns="http://www.w3.org/2000/svg" xmlns:xlink="http://www.w3.org/1999/xlink">
<title>Fill 1</title>
<desc>Created using Figma</desc>
<g id="Canvas" transform="translate(-9339 -462)">
<g id="Fill 1">
<mask id="mask0_outline_ins">
<use xlink:href="#path0_fill" fill="white" transform="translate(9339 462)"/>
</mask>
<g mask="url(#mask0_outline_ins)">
<use xlink:href="#path1_stroke_2x" transform="translate(9339 462)" fill="#818FA4"/>
</g>
</g>
</g>
<defs>
<path id="path0_fill" fill-rule="evenodd" d="M 14.695 10.5968L 11.7473 6L 14.7219 1.35938C 14.7823 1.26562 14.785 1.14975 14.7312 1.0545C 14.6769 0.959625 14.5735 0.89925 14.4623 0.89925L 0.616154 0.89925L 0.616154 0.300375C 0.616154 0.134625 0.477692 0 0.308077 0C 0.138077 0 0 0.134625 0 0.300375L 0 17.6996C 0 17.8654 0.138077 18 0.308077 18C 0.477692 18 0.616154 17.8654 0.616154 17.6996L 0.616154 11.1007L 14.4623 11.1007C 14.4635 11.1007 14.4665 11.1007 14.4681 11.1007C 14.6381 11.1007 14.7746 10.9657 14.7746 10.8004C 14.7746 10.7212 14.7446 10.6508 14.695 10.5968Z"/>
<path id="path1_stroke_2x" d="M 14.695 10.5968L 13.8532 11.1366L 13.9 11.2095L 13.9586 11.2733L 14.695 10.5968ZM 11.7473 6L 10.9054 5.46035L 10.5594 6.00011L 10.9055 6.5398L 11.7473 6ZM 14.7219 1.35938L 13.8812 0.817875L 13.88 0.819727L 14.7219 1.35938ZM 14.7312 1.0545L 15.6017 0.562373L 15.5993 0.558247L 14.7312 1.0545ZM 0.616154 0.89925L -0.383846 0.89925L -0.383846 1.89925L 0.616154 1.89925L 0.616154 0.89925ZM 0.616154 11.1007L 0.616154 10.1007L -0.383846 10.1007L -0.383846 11.1007L 0.616154 11.1007ZM 15.5368 10.0569L 12.5891 5.4602L 10.9055 6.5398L 13.8532 11.1366L 15.5368 10.0569ZM 12.5892 6.53965L 15.5638 1.89902L 13.88 0.819727L 10.9054 5.46035L 12.5892 6.53965ZM 15.5626 1.90087C 15.8246 1.49418 15.8379 0.980268 15.6017 0.562379L 13.8606 1.54662C 13.7321 1.31923 13.74 1.03707 13.8812 0.817877L 15.5626 1.90087ZM 15.5993 0.558247C 15.3664 0.150785 14.931 -0.10075 14.4623 -0.10075L 14.4623 1.89925C 14.2159 1.89925 13.9874 1.76846 13.863 1.55075L 15.5993 0.558247ZM 14.4623 -0.10075L 0.616154 -0.10075L 0.616154 1.89925L 14.4623 1.89925L 14.4623 -0.10075ZM 1.61615 0.89925L 1.61615 0.300375L -0.383846 0.300375L -0.383846 0.89925L 1.61615 0.89925ZM 1.61615 0.300375C 1.61615 -0.442177 1.00514 -1 0.308077 -1L 0.308077 1C -0.0497523 1 -0.383846 0.711427 -0.383846 0.300375L 1.61615 0.300375ZM 0.308077 -1C -0.39019 -1 -1 -0.441375 -1 0.300375L 1 0.300375C 1 0.710625 0.666344 1 0.308077 1L 0.308077 -1ZM -1 0.300375L -1 17.6996L 1 17.6996L 1 0.300375L -1 0.300375ZM -1 17.6996C -1 18.4414 -0.39019 19 0.308077 19L 0.308077 17C 0.666344 17 1 17.2894 1 17.6996L -1 17.6996ZM 0.308077 19C 1.00514 19 1.61615 18.4422 1.61615 17.6996L -0.383846 17.6996C -0.383846 17.2886 -0.0497522 17 0.308077 17L 0.308077 19ZM 1.61615 17.6996L 1.61615 11.1007L -0.383846 11.1007L -0.383846 17.6996L 1.61615 17.6996ZM 0.616154 12.1007L 14.4623 12.1007L 14.4623 10.1007L 0.616154 10.1007L 0.616154 12.1007ZM 14.4623 12.1007C 14.4635 12.1007 14.4665 12.1007 14.4681 12.1007L 14.4681 10.1007C 14.4665 10.1007 14.4635 10.1007 14.4623 10.1007L 14.4623 12.1007ZM 14.4681 12.1007C 15.1738 12.1007 15.7746 11.5345 15.7746 10.8004L 13.7746 10.8004C 13.7746 10.397 14.1024 10.1007 14.4681 10.1007L 14.4681 12.1007ZM 15.7746 10.8004C 15.7544 10.5214 15.585 10.1088 15.4314 9.92017L 13.9586 11.2733C 13.8474 11.1522 13.7746 10.9844 13.7746 10.8004L 15.7746 10.8004Z"/>
</defs>
</svg>
