<?xml version="1.0" encoding="UTF-8"?>
<svg width="15px" height="12px" viewBox="0 0 15 12" version="1.1" xmlns="http://www.w3.org/2000/svg" xmlns:xlink="http://www.w3.org/1999/xlink">
    <!-- Generator: Sketch 44.1 (41455) - http://www.bohemiancoding.com/sketch -->
    <title>calendar</title>
    <desc>Created with Sketch.</desc>
    <defs>
        <rect id="path-1" x="0" y="0" width="15" height="12" rx="2"></rect>
        <path d="M0,1.99997165 C0,0.895417808 0.893397331,0 1.99188419,0 L13.0081158,0 C14.1082031,0 15,0.889055192 15,1.99997165 L15,4.5 L0,4.5 L0,1.99997165 Z" id="path-2"></path>
        <rect id="path-3" x="2.5" y="7.5" width="2" height="1" rx="0.5"></rect>
        <rect id="path-4" x="6.5" y="7.5" width="2" height="1" rx="0.5"></rect>
        <rect id="path-5" x="10.5" y="7.5" width="2" height="1" rx="0.5"></rect>
    </defs>
    <g id="Symbols" stroke="none" stroke-width="1" fill="none" fill-rule="evenodd">
        <g id="yacht-in-catalog" transform="translate(-599.000000, -114.000000)">
            <g id="Group-2" transform="translate(599.000000, 108.000000)">
                <g id="calendar" transform="translate(0.000000, 6.000000)">
                    <g id="Group-4">
                        <g id="Rectangle-4">
                            <use fill="#E2E9F4" fill-rule="evenodd" xlink:href="#path-1"></use>
                            <rect stroke="#62738D" stroke-width="1" x="0.5" y="0.5" width="14" height="11" rx="2"></rect>
                        </g>
                        <g id="Rectangle-4-Copy-2">
                            <use fill="#E2E9F4" fill-rule="evenodd" xlink:href="#path-2"></use>
                            <path stroke="#62738D" stroke-width="1" d="M0.5,4 L14.5,4 L14.5,1.99997165 C14.5,1.16718795 13.8340466,0.5 13.0081158,0.5 L1.99188419,0.5 C1.16937916,0.5 0.5,1.17172418 0.5,1.99997165 L0.5,4 Z"></path>
                        </g>
                    </g>
                    <g id="Rectangle-18">
                        <use fill="#E2E9F4" fill-rule="evenodd" xlink:href="#path-3"></use>
                        <rect stroke="#62738D" stroke-width="1" x="3" y="8" width="1" height="1" rx="0.5"></rect>
                    </g>
                    <g id="Rectangle-18-Copy">
                        <use fill="#E2E9F4" fill-rule="evenodd" xlink:href="#path-4"></use>
                        <rect stroke="#62738D" stroke-width="1" x="7" y="8" width="1" height="1" rx="0.5"></rect>
                    </g>
                    <g id="Rectangle-18-Copy-2">
                        <use fill="#E2E9F4" fill-rule="evenodd" xlink:href="#path-5"></use>
                        <rect stroke="#62738D" stroke-width="1" x="11" y="8" width="1" height="1" rx="0.5"></rect>
                    </g>
                </g>
            </g>
        </g>
    </g>
</svg>