<svg width="30" height="26" viewBox="0 0 30 26" version="1.1" xmlns="http://www.w3.org/2000/svg" xmlns:xlink="http://www.w3.org/1999/xlink">
<title>catamaran</title>
<desc>Created using Figma</desc>
<g id="Canvas" transform="translate(-8836 -440)">
<g id="catamaran">
<g id="Rectangle 5" opacity="0.01">
<use xlink:href="#path0_fill" transform="translate(8836 440)" fill="#FFFFFF"/>
</g>
<g id="Stroke 1">
<use xlink:href="#path1_stroke" transform="translate(8839.58 459.324)" fill="#818FA4"/>
</g>
<g id="Stroke 3">
<use xlink:href="#path2_stroke" transform="translate(8856.98 457.218)" fill="#818FA4"/>
</g>
<g id="Stroke 5">
<use xlink:href="#path3_stroke" transform="translate(8838.28 457.975)" fill="#818FA4"/>
</g>
<g id="Stroke 7">
<use xlink:href="#path4_stroke" transform="translate(8844.07 456.85)" fill="#818FA4"/>
</g>
<g id="Stroke 9">
<use xlink:href="#path5_stroke" transform="translate(8849.82 441.5)" fill="#818FA4"/>
</g>
<g id="Stroke 11">
<use xlink:href="#path6_stroke" transform="translate(8842.65 441)" fill="#818FA4"/>
</g>
</g>
</g>
<defs>
<path id="path0_fill" fill-rule="evenodd" d="M 0 0L 30 0L 30 25L 0 25L 0 0Z"/>
<path id="path1_stroke" d="M 0.522456 1.04005L 0.499877 0.54056L 0.499743 0.540566L 0.522456 1.04005ZM 23.5166 0.000603469L 23.5391 0.500093L 23.5395 0.500079L 23.5166 0.000603469ZM 24.027 0.809923L 24.4706 1.04046L 24.4707 1.04033L 24.027 0.809923ZM 22.0496 4.61533L 22.4933 4.8459L 22.4933 4.84587L 22.0496 4.61533ZM 21.0289 4.73767L 0.548799 4.73767L 0.548799 5.73767L 21.0289 5.73767L 21.0289 4.73767ZM 0.548799 4.73767C 0.525755 4.73767 0.5 4.71746 0.5 4.68448L -0.5 4.68448C -0.5 5.26221 -0.0340312 5.73767 0.548799 5.73767L 0.548799 4.73767ZM 0.5 4.68448L 0.5 1.59048L -0.5 1.59048L -0.5 4.68448L 0.5 4.68448ZM 0.5 1.59048C 0.5 1.56039 0.523326 1.54053 0.54517 1.53953L 0.499743 0.540566C -0.0623351 0.566126 -0.5 1.03196 -0.5 1.59048L 0.5 1.59048ZM 0.545036 1.53954L 23.5391 0.500093L 23.494 -0.498886L 0.499877 0.54056L 0.545036 1.53954ZM 23.5395 0.500079C 23.5518 0.499515 23.5581 0.502037 23.5623 0.504342C 23.5679 0.507418 23.575 0.513348 23.581 0.522893C 23.587 0.532434 23.5899 0.542325 23.5904 0.55063C 23.5908 0.557436 23.59 0.566506 23.5832 0.579513L 24.4707 1.04033C 24.8409 0.327276 24.309 -0.53623 23.4937 -0.498873L 23.5395 0.500079ZM 23.5833 0.579383L 21.6059 4.38479L 22.4933 4.84587L 24.4706 1.04046L 23.5833 0.579383ZM 21.606 4.38475C 21.4927 4.60274 21.2695 4.73767 21.0289 4.73767L 21.0289 5.73767C 21.6455 5.73767 22.2093 5.39242 22.4933 4.8459L 21.606 4.38475Z"/>
<path id="path2_stroke" d="M 4.45264 0.000570027L 4.43061 -0.498945L 4.42968 -0.498903L 4.45264 0.000570027ZM 4.96766 0.809889L 4.52481 0.577765L 4.52474 0.577886L 4.96766 0.809889ZM 0.02296 0.704723L 4.4756 0.500043L 4.42968 -0.498903L -0.02296 -0.294222L 0.02296 0.704723ZM 4.47467 0.500085C 4.51685 0.498224 4.5434 0.542301 4.52481 0.577765L 5.41051 1.04201C 5.78801 0.321818 5.24145 -0.534701 4.43061 -0.498945L 4.47467 0.500085ZM 4.52474 0.577886L 4.33002 0.949631L 5.21585 1.41364L 5.41058 1.04189L 4.52474 0.577886Z"/>
<path id="path3_stroke" d="M 0.528298 0.283234L 0.550747 0.78273L 0.55127 0.782706L 0.528298 0.283234ZM 1.05991 3.98085L 0.553191 3.98085L 0.553191 4.98085L 1.05991 4.98085L 1.05991 3.98085ZM 0.553191 3.98085C 0.523972 3.98085 0.5 3.95688 0.5 3.92766L -0.5 3.92766C -0.5 4.50916 -0.0283128 4.98085 0.553191 4.98085L 0.553191 3.98085ZM 0.5 3.92766L 0.5 0.835872L -0.5 0.835872L -0.5 3.92766L 0.5 3.92766ZM 0.5 0.835872C 0.5 0.807402 0.522412 0.784003 0.550747 0.78273L 0.505849 -0.216262C -0.0566245 -0.190982 -0.5 0.272428 -0.5 0.835872L 0.5 0.835872ZM 0.55127 0.782706L 6.7094 0.499472L 6.66345 -0.499472L 0.505325 -0.216238L 0.55127 0.782706Z"/>
<path id="path4_stroke" d="M 14.4754 2.66455L 14.4984 3.16402L 15.8915 3.09971L 14.7749 2.26422L 14.4754 2.66455ZM 0 3.3328L -0.391116 3.02131L -1.07745 3.88308L 0.023058 3.83227L 0 3.3328ZM 2.26587 0.48774L 1.87481 0.176175L 1.87476 0.176246L 2.26587 0.48774ZM 2.81906 0.211697L 2.80543 -0.288117L 2.805 -0.288105L 2.81906 0.211697ZM 10.566 0.000378167L 10.5796 0.500192L 10.5799 0.500183L 10.566 0.000378167ZM 11.1723 0.192889L 10.8723 0.592889L 10.8727 0.593218L 11.1723 0.192889ZM 14.4523 2.16508L -0.023058 2.83334L 0.023058 3.83227L 14.4984 3.16402L 14.4523 2.16508ZM 0.391116 3.6443L 2.65699 0.799233L 1.87476 0.176246L -0.391116 3.02131L 0.391116 3.6443ZM 2.65693 0.799305C 2.69954 0.74582 2.76407 0.713442 2.83312 0.7115L 2.805 -0.288105C 2.44147 -0.277878 2.10105 -0.107787 1.87481 0.176175L 2.65693 0.799305ZM 2.8327 0.711511L 10.5796 0.500192L 10.5523 -0.499436L 2.80543 -0.288117L 2.8327 0.711511ZM 10.5799 0.500183C 10.7146 0.489463 10.7689 0.506471 10.8723 0.592889L 11.4723 -0.207111C 11.226 -0.382907 10.8532 -0.500877 10.552 -0.499427L 10.5799 0.500183ZM 10.8727 0.593218L 14.1758 3.06488L 14.7749 2.26422L 11.4718 -0.207441L 10.8727 0.593218Z"/>
<path id="path5_stroke" d="M 0.5 0L 0.5 15.5L 1.5 15.5L 1.5 0L 0.5 0Z"/>
<path id="path6_stroke" d="M 15.942 13.3705L 15.5007 13.6055L 15.5049 13.6135L 15.5095 13.6213L 15.942 13.3705ZM 9.01008 0.357435L 8.56635 0.587929L 8.56878 0.592508L 9.01008 0.357435ZM 7.69813 0.234661L 7.33694 -0.111092L 7.29561 -0.0679121L 7.26562 -0.0162054L 7.69813 0.234661ZM 0.133389 13.2768L 0.494631 13.6225L 0.53593 13.5793L 0.5659 13.5276L 0.133389 13.2768ZM 0.818574 14.6347L 15.1753 14.6347L 15.1753 13.6347L 0.818574 13.6347L 0.818574 14.6347ZM 15.1753 14.6347C 15.5707 14.6347 15.952 14.5005 16.2091 14.2443C 16.4827 13.9716 16.6165 13.5368 16.3745 13.1196L 15.5095 13.6213C 15.5057 13.6148 15.4956 13.5875 15.5021 13.5531C 15.5074 13.5246 15.5183 13.521 15.5032 13.536C 15.4689 13.5702 15.3605 13.6347 15.1753 13.6347L 15.1753 14.6347ZM 16.3833 13.1354L 9.45137 0.122362L 8.56878 0.592508L 15.5007 13.6055L 16.3833 13.1354ZM 9.45379 0.126953C 9.24094 -0.282804 8.80971 -0.459714 8.44989 -0.493367C 8.0844 -0.52755 7.64326 -0.43108 7.33694 -0.111092L 8.05931 0.580414C 8.09992 0.537999 8.20693 0.488274 8.35677 0.502288C 8.51228 0.516833 8.56356 0.582512 8.56637 0.587917L 9.45379 0.126953ZM 7.26562 -0.0162054L -0.299122 13.0259L 0.5659 13.5276L 8.13064 0.485528L 7.26562 -0.0162054ZM -0.227853 12.9311C -0.38868 13.0991 -0.492301 13.3126 -0.499594 13.5514C -0.506783 13.7867 -0.418867 13.9954 -0.290398 14.1563C -0.0395668 14.4703 0.38055 14.6347 0.818574 14.6347L 0.818574 13.6347C 0.608196 13.6347 0.509016 13.5548 0.491001 13.5322C 0.485048 13.5248 0.501155 13.5421 0.499939 13.5819C 0.498618 13.6251 0.478753 13.6391 0.494631 13.6225L -0.227853 12.9311Z"/>
</defs>
</svg>
