<svg width="19" height="14" viewBox="0 0 19 14" version="1.1" xmlns="http://www.w3.org/2000/svg" xmlns:xlink="http://www.w3.org/1999/xlink">
<title>Icon : thick-check Copy 2</title>
<desc>Created using Figma</desc>
<g id="Canvas" transform="translate(-9635 -511)">
<g id="Icon : thick-check Copy 2">
<g id="Stroke 23">
<use xlink:href="#path0_stroke" transform="translate(9637.01 518.276)" fill="#71A2EA"/>
</g>
<g id="Stroke 25">
<use xlink:href="#path1_stroke" transform="translate(9642.01 513)" fill="#71A2EA"/>
</g>
</g>
</g>
<defs>
<path id="path0_stroke" d="M 1.26493 -0.907078C 0.693699 -1.50707 -0.255762 -1.53039 -0.855755 -0.959162C -1.45575 -0.387934 -1.47907 0.561527 -0.907838 1.16152L 1.26493 -0.907078ZM 3.86832 6.17819C 4.43955 6.77818 5.38901 6.8015 5.989 6.23027C 6.589 5.65905 6.61231 4.70959 6.04109 4.10959L 3.86832 6.17819ZM -0.907838 1.16152L 3.86832 6.17819L 6.04109 4.10959L 1.26493 -0.907078L -0.907838 1.16152Z"/>
<path id="path1_stroke" d="M 11.0459 1.03743C 11.6188 0.43909 11.5983 -0.510434 10.9999 -1.08339C 10.4016 -1.65635 9.45206 -1.63577 8.8791 -1.03743L 11.0459 1.03743ZM -1.08339 9.36642C -1.65635 9.96476 -1.63577 10.9143 -1.03743 11.4872C -0.43909 12.0602 0.510434 12.0396 1.08339 11.4413L -1.08339 9.36642ZM 8.8791 -1.03743L -1.08339 9.36642L 1.08339 11.4413L 11.0459 1.03743L 8.8791 -1.03743Z"/>
</defs>
</svg>
