<?xml version="1.0" encoding="UTF-8"?>
<svg width="11px" height="14px" viewBox="0 0 11 14" version="1.1" xmlns="http://www.w3.org/2000/svg" xmlns:xlink="http://www.w3.org/1999/xlink">
    <!-- Generator: Sketch 44.1 (41455) - http://www.bohemiancoding.com/sketch -->
    <title>guests</title>
    <desc>Created with Sketch.</desc>
    <defs>
        <path d="M10.3159138,6.13804018 L9.80195276,2.29277067 C9.62615515,0.974220334 8.45048399,0 7.05516458,0 L3.26820765,0 C1.8732833,0 0.69761213,0.974220334 0.521419475,2.29277067 L0.00785344159,6.14557475 C-0.02770113,6.41455902 0.0584199434,6.75323809 0.246859173,6.95780176 C0.435298402,7.16085851 0.706698298,7.3447021 0.99073982,7.3447021 L9.33302746,7.3447021 C9.61706898,7.3447021 9.88846888,7.15633777 10.0769081,6.95328102 C10.2649523,6.75022426 10.3514684,6.40740118 10.3159138,6.13804018 Z" id="path-1"></path>
        <path d="M7.78289025,2.93916181 C7.78289025,4.56231628 6.48794738,5.8787174 4.89125144,5.8787174 C3.29494287,5.8787174 2,4.56231628 2,2.93916181 C2,1.314826 3.29494287,-4.4408921e-16 4.89125144,-4.4408921e-16 C6.48794738,-4.4408921e-16 7.78289025,1.314826 7.78289025,2.93916181 Z" id="path-2"></path>
    </defs>
    <g id="Symbols" stroke="none" stroke-width="1" fill="none" fill-rule="evenodd">
        <g id="yacht-in-catalog" transform="translate(-344.000000, -141.000000)">
            <g id="guests" transform="translate(344.000000, 141.000000)">
                <g id="Group-3" transform="translate(0.000000, 6.324027)">
                    <g id="Fill-1">
                        <use fill="#E2E9F4" fill-rule="evenodd" xlink:href="#path-1"></use>
                        <path stroke="#62738D" stroke-width="1" d="M9.82025584,6.20379267 L9.30633836,2.35884917 C9.16475063,1.2968862 8.20798224,0.5 7.05516458,0.5 L3.26820765,0.5 C2.1157591,0.5 1.15893342,1.29693391 1.0170358,2.35883469 L0.503541913,6.21109528 C0.485209639,6.34978611 0.537681321,6.53552896 0.613358022,6.6176862 C0.746219044,6.76085346 0.895375069,6.8447021 0.99073982,6.8447021 L9.33302746,6.8447021 C9.42531998,6.8447021 9.57470918,6.75939201 9.71005359,6.61354912 C9.78537449,6.53221495 9.83853959,6.34322046 9.82025584,6.20379267 Z"></path>
                    </g>
                </g>
                <g id="Fill-4">
                    <use fill="#E2E9F4" fill-rule="evenodd" xlink:href="#path-2"></use>
                    <path stroke="#62738D" stroke-width="1" d="M7.28289025,2.93916181 C7.28289025,1.58967963 6.21047703,0.5 4.89125144,0.5 C3.5723639,0.5 2.5,1.58973034 2.5,2.93916181 C2.5,4.28794583 3.57289197,5.3787174 4.89125144,5.3787174 C6.20994891,5.3787174 7.28289025,4.28799657 7.28289025,2.93916181 Z"></path>
                </g>
            </g>
        </g>
    </g>
</svg>