<svg width="14" height="19" viewBox="0 0 14 19" version="1.1" xmlns="http://www.w3.org/2000/svg" xmlns:xlink="http://www.w3.org/1999/xlink">
<title>user-silhouette</title>
<desc>Created using Figma</desc>
<g id="Canvas" transform="translate(-8646 -335)">
<g id="user-silhouette" opacity="0.8">
<g id="Group 3">
<g id="Fill 1">
<mask id="mask0_outline_ins">
<use xlink:href="#path0_fill" fill="white" transform="translate(8646 343.649)"/>
</mask>
<g mask="url(#mask0_outline_ins)">
<use xlink:href="#path1_stroke_2x" transform="translate(8646 343.649)" fill="#818FA4"/>
</g>
</g>
</g>
<g id="Fill 4">
<mask id="mask1_outline_ins">
<use xlink:href="#path2_fill" fill="white" transform="translate(8649 335)"/>
</mask>
<g mask="url(#mask1_outline_ins)">
<use xlink:href="#path3_stroke_2x" transform="translate(8649 335)" fill="#818FA4"/>
</g>
</g>
</g>
</g>
<defs>
<path id="path0_fill" fill-rule="evenodd" d="M 13.54 8.41167L 12.8654 3.14205C 12.6347 1.33509 11.0916 0 9.26016 0L 4.28964 0C 2.45875 0 0.915641 1.33509 0.684382 3.14205L 0.0103079 8.42199C -0.0363587 8.79061 0.0766783 9.25475 0.324012 9.53508C 0.571345 9.81336 0.927567 10.0653 1.30038 10.0653L 12.2499 10.0653C 12.6228 10.0653 12.979 9.80716 13.2263 9.52889C 13.4731 9.25062 13.5867 8.78081 13.54 8.41167Z"/>
<path id="path1_stroke_2x" d="M 13.54 8.41167L 14.5321 8.28625L 14.5319 8.28469L 13.54 8.41167ZM 12.8654 3.14205L 11.8735 3.26872L 11.8735 3.26903L 12.8654 3.14205ZM 0.684382 3.14205L -0.307528 3.0151L -0.307567 3.01541L 0.684382 3.14205ZM 0.0103079 8.42199L -0.981641 8.29535L -0.981774 8.2964L 0.0103079 8.42199ZM 0.324012 9.53508L -0.425862 10.1967L -0.423424 10.1994L 0.324012 9.53508ZM 13.2263 9.52889L 13.9737 10.1932L 13.9744 10.1924L 13.2263 9.52889ZM 14.5319 8.28469L 13.8573 3.01507L 11.8735 3.26903L 12.5481 8.53865L 14.5319 8.28469ZM 13.8574 3.01538C 13.5615 0.698418 11.584 -1 9.26016 -1L 9.26016 1C 10.5992 1 11.7079 1.97176 11.8735 3.26872L 13.8574 3.01538ZM 9.26016 -1L 4.28964 -1L 4.28964 1L 9.26016 1L 9.26016 -1ZM 4.28964 -1C 1.9662 -1 -0.0110447 0.698511 -0.307527 3.0151L 1.67629 3.269C 1.84233 1.97166 2.9513 1 4.28964 1L 4.28964 -1ZM -0.307567 3.01541L -0.981641 8.29535L 1.00226 8.54863L 1.67633 3.26869L -0.307567 3.01541ZM -0.981774 8.2964C -1.05799 8.89841 -0.895154 9.66475 -0.425857 10.1967L 1.07388 8.8735C 1.07503 8.8748 1.04573 8.83745 1.0222 8.75047C 0.999337 8.66596 0.997088 8.58947 1.00239 8.54759L -0.981774 8.2964ZM -0.423424 10.1994C -0.104384 10.5584 0.502596 11.0653 1.30038 11.0653L 1.30038 9.0653C 1.33945 9.0653 1.33136 9.07736 1.27133 9.04212C 1.21256 9.00762 1.14047 8.94841 1.07145 8.87075L -0.423424 10.1994ZM 1.30038 11.0653L 12.2499 11.0653L 12.2499 9.0653L 1.30038 9.0653L 1.30038 11.0653ZM 12.2499 11.0653C 13.0552 11.0653 13.663 10.5428 13.9737 10.1932L 12.4789 8.86455C 12.4072 8.94518 12.3331 9.00671 12.2731 9.04253C 12.2113 9.07936 12.2055 9.0653 12.2499 9.0653L 12.2499 11.0653ZM 13.9744 10.1924C 14.4468 9.65983 14.6079 8.88545 14.5321 8.28625L 12.5479 8.53709C 12.5532 8.57907 12.551 8.65755 12.5276 8.74439C 12.5034 8.8343 12.4739 8.87018 12.4782 8.86533L 13.9744 10.1924Z"/>
<path id="path2_fill" fill-rule="evenodd" d="M 6.94872 3.30279C 6.94872 5.12676 5.39271 6.60603 3.47413 6.60603C 1.556 6.60603 0 5.12676 0 3.30279C 0 1.4775 1.556 0 3.47413 0C 5.39271 0 6.94872 1.4775 6.94872 3.30279Z"/>
<path id="path3_stroke_2x" d="M 5.94872 3.30279C 5.94872 4.52742 4.88869 5.60603 3.47413 5.60603L 3.47413 7.60603C 5.89674 7.60603 7.94872 5.7261 7.94872 3.30279L 5.94872 3.30279ZM 3.47413 5.60603C 2.06012 5.60603 1 4.52751 1 3.30279L -1 3.30279C -1 5.72602 1.05189 7.60603 3.47413 7.60603L 3.47413 5.60603ZM 1 3.30279C 1 2.07717 2.05967 1 3.47413 1L 3.47413 -1C 1.05233 -1 -1 0.877816 -1 3.30279L 1 3.30279ZM 3.47413 1C 4.88913 1 5.94872 2.07726 5.94872 3.30279L 7.94872 3.30279C 7.94872 0.877732 5.89629 -1 3.47413 -1L 3.47413 1Z"/>
</defs>
</svg>
