<?xml version="1.0" encoding="UTF-8"?>
<svg width="16px" height="11px" viewBox="0 0 16 11" version="1.1" xmlns="http://www.w3.org/2000/svg" xmlns:xlink="http://www.w3.org/1999/xlink">
    <!-- Generator: Sketch 44.1 (41455) - http://www.bohemiancoding.com/sketch -->
    <title>length</title>
    <desc>Created with Sketch.</desc>
    <defs>
        <path d="M5.53619141,8.82815947 L10.3940558,8.82815947 L10.3940558,7.03800557 C10.3940558,5.93192319 11.0275229,5.66873338 11.806425,6.44763547 L15.3456476,9.98685807 C16.1256776,10.766888 16.1245497,12.0326944 15.3456476,12.8115965 L11.806425,16.3508191 C11.026395,17.1308491 10.3940558,16.8681855 10.3940558,15.760449 L10.3940558,13.8281595 L5.53619141,13.8281595 L5.53619141,15.760449 C5.53619141,16.8681855 4.90385218,17.1308491 4.1238222,16.3508191 L0.5845996,12.8115965 C-0.194302483,12.0326944 -0.195430379,10.766888 0.5845996,9.98685807 L4.1238222,6.44763547 C4.90272428,5.66873338 5.53619141,5.93192319 5.53619141,7.03800557 L5.53619141,8.82815947 Z" id="path-1"></path>
    </defs>
    <g id="Symbols" stroke="none" stroke-width="1" fill="none" fill-rule="evenodd">
        <g id="yacht-in-catalog" transform="translate(-678.000000, -114.000000)">
            <g id="Group-9" transform="translate(678.000000, 108.000000)">
                <g id="length">
                    <use fill="#E2E9F4" fill-rule="evenodd" xlink:href="#path-1"></use>
                    <path stroke="#62738D" stroke-width="1" d="M10.8940558,9.32815947 L5.03619141,9.32815947 L5.03619141,7.03800557 C5.03619141,6.37712098 4.94111222,6.33745222 4.47737559,6.80118886 L0.93815299,10.3404115 C0.353818145,10.9247463 0.354079877,11.87397 0.93815299,12.4580431 L4.47737559,15.9972657 C4.9422589,16.462149 5.03619141,16.4229612 5.03619141,15.760449 L5.03619141,13.3281595 L10.8940558,13.3281595 L10.8940558,15.760449 C10.8940558,16.4229612 10.9879883,16.462149 11.4528716,15.9972657 L14.9920942,12.4580431 C15.5761673,11.87397 15.5764291,10.9247463 14.9920942,10.3404115 L11.4528716,6.80118886 C10.989135,6.33745222 10.8940558,6.37712098 10.8940558,7.03800557 L10.8940558,9.32815947 Z"></path>
                </g>
            </g>
        </g>
    </g>
</svg>