<svg width="31" height="25" viewBox="0 0 31 25" version="1.1" xmlns="http://www.w3.org/2000/svg" xmlns:xlink="http://www.w3.org/1999/xlink">
<title>motor</title>
<desc>Created using Figma</desc>
<g id="Canvas" transform="translate(-8747 -440)">
<g id="motor">
<g id="Rectangle 5" opacity="0.01">
<use xlink:href="#path0_fill" transform="matrix(-1 0 0 1 8777 440)" fill="#C6C6C6"/>
</g>
<g id="Stroke 1">
<use xlink:href="#path1_stroke" transform="matrix(-1 0 0 1 8776.71 455.321)" fill="#818FA4"/>
</g>
<g id="Stroke 3">
<use xlink:href="#path2_stroke" transform="matrix(-1 0 0 1 8772.57 451.295)" fill="#818FA4"/>
</g>
<g id="Stroke 5">
<use xlink:href="#path3_stroke" transform="matrix(-1 0 0 1 8756.44 452.36)" fill="#818FA4"/>
</g>
</g>
</g>
<defs>
<path id="path0_fill" fill-rule="evenodd" d="M 0 0L 30 0L 30 25L 0 25L 0 0Z"/>
<path id="path1_stroke" d="M 25.5506 5.33059L 25.5584 4.83065L 25.0403 4.8226L 25.0507 5.34062L 25.5506 5.33059ZM 25.6059 8.08777L 25.6059 8.58777L 26.116 8.58777L 26.1058 8.07775L 25.6059 8.08777ZM 0 0L 0 -0.5L -0.5 -0.5L -0.5 0L 0 0ZM 28.7059 0L 29.2059 0L 29.2059 -0.5L 28.7059 -0.5L 28.7059 0ZM 28.7059 5.37964L 28.6982 5.87958L 29.2059 5.88747L 29.2059 5.37964L 28.7059 5.37964ZM 25.0507 5.34062L 25.106 8.0978L 26.1058 8.07775L 26.0505 5.32057L 25.0507 5.34062ZM 25.6059 7.58777L 15.6976 7.58777L 15.6976 8.58777L 25.6059 8.58777L 25.6059 7.58777ZM 15.6976 7.58777C 11.308 7.58777 7.49669 7.736 4.75385 6.83489C 3.39236 6.39183 2.3768 5.74626 1.6469 4.65656C 0.926488 3.59867 0.5 2.11321 0.5 0L -0.5 0C -0.5 2.24149 -0.0479588 3.94436 0.820347 5.21943C 1.67916 6.4627 2.9625 7.29473 4.44174 7.78494C 7.38037 8.75036 11.4179 8.58777 15.6976 8.58777L 15.6976 7.58777ZM 0 0.5L 28.7059 0.5L 28.7059 -0.5L 0 -0.5L 0 0.5ZM 28.2059 0L 28.2059 5.37964L 29.2059 5.37964L 29.2059 0L 28.2059 0ZM 28.7137 4.8797L 25.5584 4.83065L 25.5428 5.83053L 28.6982 5.87958L 28.7137 4.8797Z"/>
<path id="path2_stroke" d="M 12.6347 3.93959L 12.6347 4.43959L 13.1347 4.43959L 13.1347 3.93959L 12.6347 3.93959ZM 0 3.93959L -0.34194 3.57479L -1.26455 4.43959L 0 4.43959L 0 3.93959ZM 4.20294 0L 4.20294 -0.5L 4.00524 -0.5L 3.861 -0.364797L 4.20294 0ZM 13.7271 0L 14.1541 0.260035L 14.6169 -0.5L 13.7271 -0.5L 13.7271 0ZM 12.6347 1.794L 12.2076 1.53397L 12.1347 1.65375L 12.1347 1.794L 12.6347 1.794ZM 12.6347 3.43959L 0 3.43959L 0 4.43959L 12.6347 4.43959L 12.6347 3.43959ZM 0.34194 4.30439L 4.54488 0.364797L 3.861 -0.364797L -0.34194 3.57479L 0.34194 4.30439ZM 4.20294 0.5L 13.7271 0.5L 13.7271 -0.5L 4.20294 -0.5L 4.20294 0.5ZM 13.3 -0.260035L 12.2076 1.53397L 13.0618 2.05403L 14.1541 0.260035L 13.3 -0.260035ZM 12.1347 1.794L 12.1347 3.93959L 13.1347 3.93959L 13.1347 1.794L 12.1347 1.794Z"/>
<path id="path3_stroke" d="M 6.65412 2.8925L 6.65412 3.3925L 7.15412 3.3925L 7.15412 2.8925L 6.65412 2.8925ZM 0 2.8925L -0.5 2.8925L -0.5 3.3925L 0 3.3925L 0 2.8925ZM 0 0L 0.118782 -0.485686L -0.5 -0.637018L -0.5 0L 0 0ZM 6.65412 1.62736L 7.15412 1.62736L 7.15412 1.23491L 6.7729 1.14168L 6.65412 1.62736ZM 6.65412 2.3925L 0 2.3925L 0 3.3925L 6.65412 3.3925L 6.65412 2.3925ZM 0.5 2.8925L 0.5 0L -0.5 0L -0.5 2.8925L 0.5 2.8925ZM -0.118782 0.485686L 6.53534 2.11305L 6.7729 1.14168L 0.118782 -0.485686L -0.118782 0.485686ZM 6.15412 1.62736L 6.15412 2.8925L 7.15412 2.8925L 7.15412 1.62736L 6.15412 1.62736Z"/>
</defs>
</svg>
