<svg width="30" height="26" viewBox="0 0 30 26" version="1.1" xmlns="http://www.w3.org/2000/svg" xmlns:xlink="http://www.w3.org/1999/xlink">
<title>sail</title>
<desc>Created using Figma</desc>
<g id="Canvas" transform="translate(-8659 -439)">
<g id="sail">
<g id="Rectangle 5" opacity="0.01">
<use xlink:href="#path0_fill" transform="translate(8659 440)" fill="#E47272"/>
</g>
<g id="Fill 1">
<use xlink:href="#path1_fill" transform="translate(8674.48 440.516)" fill="#818FA4"/>
</g>
<g id="Rectangle 6">
<use xlink:href="#path2_stroke" transform="translate(8667.17 440.662)" fill="#818FA4"/>
</g>
<mask id="mask0_outline" mask-type="alpha">
<g id="Clip 6">
<use xlink:href="#path3_fill" transform="translate(8663.28 459.625)" fill="#FFFFFF"/>
</g>
</mask>
<g id="Stroke 5" mask="url(#mask0_outline)">
<use xlink:href="#path4_stroke" transform="translate(8663.28 459.625)" fill="#818FA4"/>
</g>
</g>
</g>
<defs>
<path id="path0_fill" fill-rule="evenodd" d="M 0 0L 30 0L 30 25L 0 25L 0 0Z"/>
<path id="path1_fill" fill-rule="evenodd" d="M 0 20L 1.04452 20L 1.04452 0L 0 0L 0 20Z"/>
<path id="path2_stroke" d="M 17.5676 15.853L 17.1303 16.0953L 17.5676 15.853ZM -0.894856 15.8913L -0.447428 16.1145L -0.894856 15.8913ZM 8.3448 0.242363L 17.1303 16.0953L 18.0049 15.6106L 9.21946 -0.242363L 8.3448 0.242363ZM 16.6929 16.8377L 5.07526e-08 16.8377L 5.07526e-08 17.8377L 16.6929 17.8377L 16.6929 16.8377ZM -0.447428 16.1145L 7.46004 0.261549L 6.56518 -0.184805L -1.34228 15.6682L -0.447428 16.1145ZM 9.21946 -0.242363C 8.6341 -1.29862 7.1042 -1.26545 6.56518 -0.184805L 7.46004 0.261549C 7.63971 -0.0986643 8.14968 -0.109723 8.3448 0.242363L 9.21946 -0.242363ZM 17.1303 16.0953C 17.315 16.4286 17.0739 16.8377 16.6929 16.8377L 16.6929 17.8377C 17.836 17.8377 18.559 16.6104 18.0049 15.6106L 17.1303 16.0953ZM 5.07526e-08 16.8377C -0.371481 16.8377 -0.61324 16.4469 -0.447428 16.1145L -1.34228 15.6682C -1.83972 16.6654 -1.11444 17.8377 5.07526e-08 17.8377L 5.07526e-08 16.8377Z"/>
<path id="path3_fill" fill-rule="evenodd" d="M 0 3.8963C 0.00259468 3.80995 0.0191943 3.71863 0.0511044 3.62411L 0.769539 1.4992C 0.951626 0.959334 1.56154 0.510302 2.14537 0.496366L 22.6758 0.00036606C 22.6798 0.00019186 22.6838 7.64546e-05 22.6877 0L 22.7303 1.17354e-13C 23.0547 0.00488099 23.2325 0.128465 23.2391 0.317688L 23.2391 0.339917C 23.2351 0.457236 23.1683 0.597757 23.0332 0.749785L 20.2988 3.82695C 19.9184 4.2543 19.1389 4.60114 18.5692 4.60114L 0.762757 4.60114C 0.306581 4.60114 0.0117015 4.3271 5.93149e-13 3.94405L 4.74519e-13 3.8963L 0 3.8963Z"/>
<path id="path4_stroke" d="M 0.769383 1.49874L 1.7168 1.81875L 1.71685 1.81861L 0.769383 1.49874ZM 2.14521 0.496418L 2.16909 1.49613L 2.16936 1.49613L 2.14521 0.496418ZM 22.6756 0.000417673L 22.6515 -0.999291L 22.6515 -0.999291L 22.6756 0.000417673ZM 23.0336 0.749321L 23.7811 1.41358L 23.7811 1.41352L 23.0336 0.749321ZM 20.2986 3.827L 21.046 4.49132L 21.0461 4.49126L 20.2986 3.827ZM 0.0514697 3.62416L 0.998841 3.9443L 0.998883 3.94417L 0.0514697 3.62416ZM 1.71685 1.81861C 1.76268 1.68283 2.00018 1.50017 2.16909 1.49613L 2.12133 -0.503297C 1.12363 -0.479461 0.140255 0.235943 -0.17808 1.17888L 1.71685 1.81861ZM 2.16936 1.49613L 22.6998 1.00013L 22.6515 -0.999291L 2.12106 -0.503291L 2.16936 1.49613ZM 22.6998 1.00013C 22.7557 0.998777 22.7291 1.009 22.6557 0.979504C 22.5749 0.94707 22.4117 0.852362 22.3104 0.639825C 22.2083 0.425516 22.2376 0.23483 22.2666 0.144644C 22.2925 0.063787 22.3209 0.0458968 22.286 0.0851244L 23.7811 1.41352C 24.0347 1.12811 24.4549 0.491042 24.116 -0.22028C 23.7819 -0.921788 23.0325 -1.00848 22.6515 -0.999291L 22.6998 1.00013ZM 22.2861 0.0850597L 19.5511 3.16274L 21.0461 4.49126L 23.7811 1.41358L 22.2861 0.0850597ZM 19.5512 3.16268C 19.363 3.37443 18.8559 3.60119 18.5696 3.60119L 18.5696 5.60119C 19.4216 5.60119 20.4746 5.13428 21.046 4.49132L 19.5512 3.16268ZM 18.5696 3.60119L 0.7626 3.60119L 0.7626 5.60119L 18.5696 5.60119L 18.5696 3.60119ZM 0.7626 3.60119C 0.730412 3.60119 0.836784 3.59689 0.931199 3.72648C 1.02727 3.85835 0.991757 3.96526 0.998841 3.9443L -0.895901 3.30402C -1.07143 3.82345 -1.03885 4.41887 -0.685303 4.90416C -0.33341 5.38717 0.219831 5.60119 0.7626 5.60119L 0.7626 3.60119ZM 0.998883 3.94417L 1.7168 1.81875L -0.178031 1.17873L -0.895944 3.30415L 0.998883 3.94417Z"/>
</defs>
</svg>
