<?xml version="1.0" encoding="UTF-8"?>
<svg width="11px" height="15px" viewBox="0 0 11 15" version="1.1" xmlns="http://www.w3.org/2000/svg" xmlns:xlink="http://www.w3.org/1999/xlink">
    <!-- Generator: Sketch 44.1 (41455) - http://www.bohemiancoding.com/sketch -->
    <title>sailing</title>
    <desc>Created with Sketch.</desc>
    <defs>
        <path d="M10.4917874,15.3510428 C10.3552914,15.2173108 10.1751877,15.143652 9.98445639,15.143652 C9.78721982,15.143652 9.60269111,15.221637 9.46487135,15.3631864 C9.10364287,15.7345165 8.68186297,15.8397868 8.28886485,15.8651367 C8.25119512,11.5957322 7.25839359,8.37849935 6.66195626,6.82528832 C6.23499487,5.71365083 5.75383598,4.76314442 5.27014307,4.0764968 C4.76708581,3.36214647 4.3114561,3 3.91641565,3 C3.56536103,3 3.25836788,3.39148098 2.88961303,4.30908568 C2.61836074,4.9837035 2.32642036,5.92088984 2.02180995,7.09419431 C1.45063705,9.29375122 0.976853247,11.7928768 0.803103525,13.1304242 C0.796295743,13.1651095 0.774737767,13.2831306 0.769858857,13.403201 C0.737937924,14.1800911 1.17968733,14.4605715 1.55570381,14.559011 C1.55642241,14.5591628 1.55733012,14.5591628 1.55789743,14.5593146 C1.56705012,14.5616674 1.57635408,14.5636028 1.58596062,14.5647792 C1.58626319,14.5647792 1.58656576,14.5647792 1.58686833,14.564931 L6.57893914,15.2088861 L6.57893914,15.8722331 L1.25370304,15.8722331 C0.853329827,15.8722331 0.527577464,16.1990871 0.527577464,16.6008143 L0.527577464,17.0865983 C0.527577464,17.2207477 0.636010301,17.3295852 0.769556289,17.3295852 L8.04805847,17.3295852 C8.42713846,17.3295852 9.58113313,17.3295852 10.5038901,16.3812798 C10.6395163,16.2420832 10.7128134,16.0582966 10.710582,15.8636567 C10.7082371,15.6690167 10.6305149,15.4869758 10.4917874,15.3510428 Z" id="path-1"></path>
    </defs>
    <g id="Symbols" stroke="none" stroke-width="1" fill="none" fill-rule="evenodd">
        <g id="yacht-in-catalog" transform="translate(-485.000000, -111.000000)">
            <g id="Group-7" transform="translate(485.000000, 108.000000)">
                <g id="sailing" transform="translate(5.619104, 10.164793) rotate(-360.000000) translate(-5.619104, -10.164793) ">
                    <use fill="#E1E8F4" fill-rule="evenodd" xlink:href="#path-1"></use>
                    <path stroke="#62738D" stroke-width="1" d="M1.62721256,14.0642012 C1.61950908,14.0629419 1.61608639,14.0625988 1.60845289,14.0618335 L1.60556996,14.0615414 C1.61181498,14.0617733 1.61457337,14.0618758 1.62721257,14.0642012 Z M1.62721257,14.0642012 C1.63343583,14.0653461 1.64205457,14.06703 1.65466445,14.0695336 L7.07893914,14.7692411 L7.07893914,16.3722331 L1.25370304,16.3722331 C1.12985078,16.3722331 1.02757746,16.4748523 1.02757746,16.6008143 L1.02757746,16.8295852 L8.04805847,16.8295852 C8.63568424,16.8295852 9.09273451,16.7518376 9.5935577,16.4631639 C9.79182453,16.3488833 9.97629221,16.2065229 10.1457737,16.0323492 C10.1889012,15.9880863 10.2113314,15.9318956 10.2106182,15.8696799 C10.2098664,15.8072685 10.1860585,15.7514935 10.1418493,15.7081748 L10.1418687,15.7081938 C10.0987412,15.6659396 10.0442265,15.643652 9.98445639,15.643652 C9.92223337,15.643652 9.86687319,15.6670441 9.823266,15.7118313 C9.40829748,16.1384043 8.91528114,16.3257696 8.32104986,16.3640997 L7.79354804,16.3981256 L7.78888431,15.8695481 C7.75835055,12.4089193 7.11550164,9.40116231 6.19520029,7.00456148 C5.78185573,5.92837679 5.31879209,5.01378207 4.86133854,4.36438368 C4.44367393,3.77129244 4.10247404,3.5 3.91641565,3.5 C3.85343183,3.5 3.64874596,3.76097097 3.35351743,4.49561371 C3.09157431,5.14707917 2.80559106,6.06496666 2.50575932,7.21986451 C1.98570991,9.22254756 1.49058798,11.7194847 1.29374239,13.2267233 C1.28266162,13.2831792 1.2720832,13.358614 1.26943733,13.4237277 C1.25245212,13.8371131 1.39080981,13.9989922 1.65904254,14.0698064 C1.64256408,14.0668536 1.63347417,14.0652247 1.62721256,14.0642012 Z"></path>
                </g>
            </g>
        </g>
    </g>
</svg>